<svg xmlns="http://www.w3.org/2000/svg" viewBox="0 0 36 36"><defs><style>.cls-1{fill:#39b6ae;}</style></defs><title>linkedin</title><g id="Layer_2" data-name="Layer 2"><g id="Layer_1-2" data-name="Layer 1"><path class="cls-1" d="M33.34,0H2.66A2.63,2.63,0,0,0,0,2.6V33.4A2.63,2.63,0,0,0,2.66,36H33.34A2.63,2.63,0,0,0,36,33.4V2.6A2.63,2.63,0,0,0,33.34,0ZM10.68,30.68H5.33V13.5h5.35ZM8,11.15a3.1,3.1,0,1,1,3.09-3.1A3.1,3.1,0,0,1,8,11.15ZM30.68,30.68H25.34V22.32c0-2,0-4.55-2.78-4.55s-3.2,2.17-3.2,4.41v8.5H14V13.5h5.12v2.34h.07a5.6,5.6,0,0,1,5.05-2.77c5.41,0,6.41,3.56,6.41,8.18Z"/></g></g></svg>