<svg xmlns="http://www.w3.org/2000/svg" viewBox="0 0 135.58 135.58"><defs><style>.cls-1{fill:#00d0c0;}</style></defs><title>Asset 5</title><g id="Layer_2" data-name="Layer 2"><g id="Layer_1-2" data-name="Layer 1"><path class="cls-1" d="M67.79,0a67.79,67.79,0,1,0,67.79,67.79A67.79,67.79,0,0,0,67.79,0ZM47.69,55.16a3.12,3.12,0,0,1-1.21,2.53l-4.95,4.18-8.91,7.37a.45.45,0,0,0-.11.33.44.44,0,0,0,.11.33l8.91,7.37,4.95,4.18A3.13,3.13,0,0,1,47.69,84V94.74a1,1,0,0,1-.33.88q-.33.22-.88-.22L18.34,71.76a.49.49,0,0,1-.27-.33A1.66,1.66,0,0,1,18,71V68.13a.86.86,0,0,1,.33-.77L46.48,43.73q.55-.44.88-.22a1,1,0,0,1,.33.88ZM83,32.62l-22.86,74a1.88,1.88,0,0,1-2,1.43H52.2q-1.54,0-1.1-1.43L74,32.51a1.88,1.88,0,0,1,2-1.43h5.94a1.11,1.11,0,0,1,1,.49A1.07,1.07,0,0,1,83,32.62Zm33.09,35.51V71a1.83,1.83,0,0,1-.06.44.5.5,0,0,1-.27.33L87.6,95.39q-.55.44-.88.22a1,1,0,0,1-.33-.88V84a3.12,3.12,0,0,1,1.21-2.53l13.85-11.54a.44.44,0,0,0,.11-.33.45.45,0,0,0-.11-.33L87.6,57.69a3.12,3.12,0,0,1-1.21-2.53V44.39a1,1,0,0,1,.33-.88q.33-.22.88.22l28.14,23.63A.86.86,0,0,1,116.07,68.13Z"/></g></g></svg>