<svg xmlns="http://www.w3.org/2000/svg" viewBox="0 0 415.54 340.52"><defs><style>.cls-1{fill:#00C4B5;}</style></defs><title>twitter</title><g id="Layer_2" data-name="Layer 2"><g id="Layer_1-2" data-name="Layer 1"><path class="cls-1" d="M0,303.47c45.49,2.78,86.15-8.89,123.81-36.56-39.33-4-65.5-23.09-78.76-59.41a88.88,88.88,0,0,0,35.72-2c-42-13.53-64.09-41.11-67.15-85.41,12.46,5.6,24,9.7,36.74,9.72-24.44-19.3-36.56-44.3-35.48-75.2.46-13.35,3.72-26.21,11.69-38.28,46.47,54.36,104.76,84,176.37,89.47-.43-3.41-.74-5.65-1-7.9-5.76-51,28.31-91,74.35-97.06,26.67-3.47,50.48,4.36,70.26,23,2.63,2.48,5,3.19,8.43,2.32,15.91-4,31.3-9.26,45.54-17.57A34.31,34.31,0,0,1,404.37,7c-6.51,19.56-18.22,34.13-34.19,45.77,15.64-1.12,30.1-6.13,44.45-11.64l.91,1.21c-5.79,7-11.22,14.34-17.49,20.88A238.5,238.5,0,0,1,377.7,81.64a10.23,10.23,0,0,0-4.13,8.93,249.41,249.41,0,0,1-27.78,118.48C322.08,255.36,287.58,291.21,241.13,315c-28.06,14.36-58,22.11-89.52,24.6-35,2.78-69.38-.31-102.36-12.49-16-5.91-31.08-14.35-46.56-21.69A17.63,17.63,0,0,1,0,303.47Z"/></g></g></svg>