<svg xmlns="http://www.w3.org/2000/svg" viewBox="0 0 135.58 135.58"><defs><style>.cls-1{fill:#00d0c0;}</style></defs><title>Asset 4</title><g id="Layer_2" data-name="Layer 2"><g id="Layer_1-2" data-name="Layer 1"><path class="cls-1" d="M67.79,0a67.79,67.79,0,1,0,67.79,67.79A67.79,67.79,0,0,0,67.79,0Zm42.14,83.57A10.16,10.16,0,0,1,99.8,93.7H75.69l16.12,16.12-3.89,3.89L68.79,94.58,49.67,113.71l-3.89-3.89L61.9,93.7H35.79A10.16,10.16,0,0,1,25.65,83.57v-46A10.16,10.16,0,0,1,35.79,27.48h64a10.16,10.16,0,0,1,10.13,10.13Z"/><rect class="cls-1" x="42.14" y="64.44" width="12.39" height="17.17"/><rect class="cls-1" x="62.22" y="55.85" width="12.39" height="25.76"/><polygon class="cls-1" points="89.08 42.97 82.88 42.97 82.88 81.62 89.08 81.62 95.27 81.62 95.27 42.97 89.08 42.97"/></g></g></svg>